{"accessors":[{"bufferView":0,"byteOffset":0,"componentType":5126,"count":8,"max":[0.037876471465743154,0.0093,0.008379778454825864],"min":[0.03743343488591814,-2e-18,0.00655002130494584],"type":"VEC3"},{"bufferView":0,"byteOffset":96,"componentType":5126,"count":163,"max":[0.03872358534191228,0.009300000000000001,0.040780608999999995],"min":[0.0017757988970915264,0.009299999999999996,-0.04254192282744095],"type":"VEC3"},{"bufferView":0,"byteOffset":2052,"componentType":5126,"count":4,"max":[0.03743343488591814,0.0093,0.00655002130494584],"min":[0.03743343488591814,-2e-18,0.004715120132490905],"type":"VEC3"},{"bufferView":0,"byteOffset":2100,"componentType":5126,"count":32,"max":[0.03872358534191228,0.009300000000000001,0.019476888433509046],"min":[0.023423778924658495,-2e-18,0.008379778454825864],"type":"VEC3"},{"bufferView":0,"byteOffset":2484,"componentType":5126,"count":163,"max":[0.03872358534191228,2.0000000000000002e-20,0.040780608999999995],"min":[0.0017757988970915264,-5.3290705182007515e-18,-0.04254192282744095],"type":"VEC3"},{"bufferView":0,"byteOffset":4440,"componentType":5126,"count":24,"max":[0.03743343488591814,0.0093,0.004715120132490905],"min":[0.03705275957292389,-2e-18,0.004516098548435716],"type":"VEC3"},{"bufferView":0,"byteOffset":4728,"componentType":5126,"count":4,"max":[0.03705275957292389,0.0093,0.008685638758329428],"min":[0.03512717061647394,-2e-18,0.004629350491740633],"type":"VEC3"},{"bufferView":0,"byteOffset":4776,"componentType":5126,"count":12,"max":[0.0351584470504771,0.0093,0.009083122784812506],"min":[0.035088654611912865,-2e-18,0.008685638758329428],"type":"VEC3"},{"bufferView":0,"byteOffset":4920,"componentType":5126,"count":34,"max":[0.03599838661871296,0.009300000000000001,0.016818324552296666],"min":[0.026123778924658496,-2e-18,0.009083122784812506],"type":"VEC3"},{"bufferView":0,"byteOffset":5328,"componentType":5126,"count":4,"max":[0.026123778924658496,0.009300000000000001,0.011879189003971419],"min":[0.026123778924658465,-1e-18,-0.028539636343429316],"type":"VEC3"},{"bufferView":0,"byteOffset":5376,"componentType":5126,"count":8,"max":[0.0314127165022316,0.009300000000000001,-0.026541922827466712],"min":[0.026123778924658465,0.0,-0.028539636343429316],"type":"VEC3"},{"bufferView":0,"byteOffset":5472,"componentType":5126,"count":4,"max":[0.038412716502231596,0.009300000000000001,-0.026541922827440948],"min":[0.0314127165022316,0.0,-0.026541922827466712],"type":"VEC3"},{"bufferView":0,"byteOffset":5520,"componentType":5126,"count":4,"max":[0.038412716502231596,0.009300000000000001,-0.026541922827440948],"min":[0.038412716502231596,0.0,-0.02682770926506785],"type":"VEC3"},{"bufferView":0,"byteOffset":5568,"componentType":5126,"count":10,"max":[0.038412716502231596,0.009300000000000001,-0.02682770926506785],"min":[0.03811982328341814,0.0,-0.027534816046254396],"type":"VEC3"},{"bufferView":0,"byteOffset":5688,"componentType":5126,"count":4,"max":[0.03811982328341814,0.009300000000000001,-0.027534816046254396],"min":[0.035605609721045046,0.0,-0.030049029608627497],"type":"VEC3"},{"bufferView":0,"byteOffset":5736,"componentType":5126,"count":10,"max":[0.035605609721045046,0.009300000000000001,-0.030049029608627497],"min":[0.0348985029398585,0.0,-0.03034192282744095],"type":"VEC3"},{"bufferView":0,"byteOffset":5856,"componentType":5126,"count":4,"max":[0.0348985029398585,0.009300000000000001,-0.03034192282744095],"min":[0.03440601369733579,0.0,-0.03034192282744095],"type":"VEC3"},{"bufferView":0,"byteOffset":5904,"componentType":5126,"count":8,"max":[0.03440601369733579,0.009300000000000001,-0.030208589494107617],"min":[0.033907126045765935,0.0,-0.03034192282744095],"type":"VEC3"},{"bufferView":0,"byteOffset":6000,"componentType":5126,"count":36,"max":[0.03390712604576594,0.009300000000000001,-0.02954414545763209],"min":[0.0264505388469782,0.0,-0.03953970019724982],"type":"VEC3"},{"bufferView":0,"byteOffset":6432,"componentType":5126,"count":8,"max":[0.0344060136973358,0.009300000000000001,-0.03874192282744095],"min":[0.03390712604576594,0.0,-0.03887525616077428],"type":"VEC3"},{"bufferView":0,"byteOffset":6528,"componentType":5126,"count":4,"max":[0.0348985029398585,0.009300000000000001,-0.03874192282744095],"min":[0.0344060136973358,0.0,-0.03874192282744095],"type":"VEC3"},{"bufferView":0,"byteOffset":6576,"componentType":5126,"count":10,"max":[0.035605609721045046,0.009300000000000001,-0.03874192282744095],"min":[0.0348985029398585,0.0,-0.039034816046254396],"type":"VEC3"},{"bufferView":0,"byteOffset":6696,"componentType":5126,"count":4,"max":[0.03811982328341814,0.009300000000000001,-0.039034816046254396],"min":[0.035605609721045046,0.0,-0.04154902960862749],"type":"VEC3"},{"bufferView":0,"byteOffset":6744,"componentType":5126,"count":10,"max":[0.038412716502231596,0.009300000000000001,-0.04154902960862749],"min":[0.03811982328341814,0.0,-0.04225613638981404],"type":"VEC3"},{"bufferView":0,"byteOffset":6864,"componentType":5126,"count":4,"max":[0.038412716502231596,0.009300000000000001,-0.04225613638981404],"min":[0.038412716502231596,0.0,-0.04254192282744095],"type":"VEC3"},{"bufferView":0,"byteOffset":6912,"componentType":5126,"count":4,"max":[0.038412716502231596,0.009300000000000001,-0.04254192282741518],"min":[0.0314127165022316,0.0,-0.04254192282744095],"type":"VEC3"},{"bufferView":0,"byteOffset":6960,"componentType":5126,"count":14,"max":[0.0314127165022316,0.009300000000000001,-0.035975587929282786],"min":[0.023542198325643044,-3e-18,-0.04254192282741518],"type":"VEC3"},{"bufferView":0,"byteOffset":7128,"componentType":5126,"count":26,"max":[0.023542198325643044,0.009299999999999998,-0.024521260999999996],"min":[0.0021922790059935976,-5.3290705182007515e-18,-0.04053196295135],"type":"VEC3"},{"bufferView":0,"byteOffset":7440,"componentType":5126,"count":4,"max":[0.005513530710651361,0.009299999999999996,-0.024521260999999996],"min":[0.0028165838878989684,-5e-18,-0.025017057461923144],"type":"VEC3"},{"bufferView":0,"byteOffset":7488,"componentType":5126,"count":32,"max":[0.023423778924658495,0.009299999999999998,-0.025017057461923144],"min":[0.0048498103918895785,-5.3290705182007515e-18,-0.03780498493800974],"type":"VEC3"},{"bufferView":0,"byteOffset":7872,"componentType":5126,"count":8,"max":[0.0234237789246585,0.0093,-0.006605934777353106],"min":[0.023423778924658495,-3e-18,-0.0287740212474789],"type":"VEC3"},{"bufferView":0,"byteOffset":7968,"componentType":5126,"count":36,"max":[0.023423778924658495,0.0093,0.040780608999999995],"min":[0.0017757988970915264,-2e-18,-0.006605934777353106],"type":"VEC3"},{"bufferView":0,"byteOffset":8400,"componentType":5126,"count":4,"max":[0.009288168819624474,0.0093,0.040780608999999995],"min":[0.007195776999999998,-2e-18,0.038630749359658656],"type":"VEC3"},{"bufferView":0,"byteOffset":8448,"componentType":5126,"count":44,"max":[0.0234237789246585,0.0093,0.038630749359658656],"min":[0.004703713650477917,-2e-18,-0.0035059347773531008],"type":"VEC3"},{"bufferView":0,"byteOffset":8976,"componentType":5126,"count":8,"max":[0.0234237789246585,0.009300000000000001,0.011879189003971419],"min":[0.023423778924658495,-2e-18,-0.0035059347773531008],"type":"VEC3"},{"bufferView":0,"byteOffset":9072,"componentType":5126,"count":5,"max":[0.0234237789246585,0.005649999999999999,0.0006703316128898709],"min":[0.01130960211919237,0.005649999999999998,-0.018956547],"type":"VEC3"},{"bufferView":0,"byteOffset":9132,"componentType":5126,"count":4,"max":[0.0234237789246585,0.005649999999999999,0.0006703316128898709],"min":[0.01130960211919237,0.003649999999999999,-0.018956547],"type":"VEC3"},{"bufferView":0,"byteOffset":9180,"componentType":5126,"count":5,"max":[0.0234237789246585,0.003649999999999999,0.0006703316128898709],"min":[0.01130960211919237,0.003649999999999998,-0.018956547],"type":"VEC3"},{"bufferView":0,"byteOffset":9240,"componentType":5126,"count":17,"max":[0.0234237789246585,0.003649999999999999,0.03150840590096174],"min":[0.004703713650477917,0.003649999999999998,-0.0035059347773531008],"type":"VEC3"},{"bufferView":0,"byteOffset":9444,"componentType":5126,"count":4,"max":[0.0059563674465432604,0.005649999999999999,0.03150840590096174],"min":[0.004703713650477917,0.003649999999999999,0.023456494293487926],"type":"VEC3"},{"bufferView":0,"byteOffset":9492,"componentType":5126,"count":17,"max":[0.0234237789246585,0.005649999999999999,0.03150840590096174],"min":[0.004703713650477917,0.005649999999999998,-0.0035059347773531008],"type":"VEC3"},{"bufferView":0,"byteOffset":9696,"componentType":5126,"count":4,"max":[0.023423778924658495,0.005649999999999999,0.004460483045379559],"min":[0.01842785865481007,0.003649999999999999,0.002475914197065325],"type":"VEC3"},{"bufferView":0,"byteOffset":9744,"componentType":5126,"count":12,"max":[0.01842785865481007,0.005649999999999999,0.017246935585241832],"min":[0.008203918420698947,0.0036499999999999987,0.004460483045379559],"type":"VEC3"},{"bufferView":0,"byteOffset":9888,"componentType":5126,"count":4,"max":[0.008203918420698947,0.005649999999999999,0.03150840590096174],"min":[0.0059563674465432604,0.003649999999999999,0.017246935585241832],"type":"VEC3"},{"bufferView":1,"byteOffset":0,"componentType":5126,"count":8,"type":"VEC3"},{"bufferView":1,"byteOffset":96,"componentType":5126,"count":163,"type":"VEC3"},{"bufferView":1,"byteOffset":2052,"componentType":5126,"count":4,"type":"VEC3"},{"bufferView":1,"byteOffset":2100,"componentType":5126,"count":32,"type":"VEC3"},{"bufferView":1,"byteOffset":2484,"componentType":5126,"count":163,"type":"VEC3"},{"bufferView":1,"byteOffset":4440,"componentType":5126,"count":24,"type":"VEC3"},{"bufferView":1,"byteOffset":4728,"componentType":5126,"count":4,"type":"VEC3"},{"bufferView":1,"byteOffset":4776,"componentType":5126,"count":12,"type":"VEC3"},{"bufferView":1,"byteOffset":4920,"componentType":5126,"count":34,"type":"VEC3"},{"bufferView":1,"byteOffset":5328,"componentType":5126,"count":4,"type":"VEC3"},{"bufferView":1,"byteOffset":5376,"componentType":5126,"count":8,"type":"VEC3"},{"bufferView":1,"byteOffset":5472,"componentType":5126,"count":4,"type":"VEC3"},{"bufferView":1,"byteOffset":5520,"componentType":5126,"count":4,"type":"VEC3"},{"bufferView":1,"byteOffset":5568,"componentType":5126,"count":10,"type":"VEC3"},{"bufferView":1,"byteOffset":5688,"componentType":5126,"count":4,"type":"VEC3"},{"bufferView":1,"byteOffset":5736,"componentType":5126,"count":10,"type":"VEC3"},{"bufferView":1,"byteOffset":5856,"componentType":5126,"count":4,"type":"VEC3"},{"bufferView":1,"byteOffset":5904,"componentType":5126,"count":8,"type":"VEC3"},{"bufferView":1,"byteOffset":6000,"componentType":5126,"count":36,"type":"VEC3"},{"bufferView":1,"byteOffset":6432,"componentType":5126,"count":8,"type":"VEC3"},{"bufferView":1,"byteOffset":6528,"componentType":5126,"count":4,"type":"VEC3"},{"bufferView":1,"byteOffset":6576,"componentType":5126,"count":10,"type":"VEC3"},{"bufferView":1,"byteOffset":6696,"componentType":5126,"count":4,"type":"VEC3"},{"bufferView":1,"byteOffset":6744,"componentType":5126,"count":10,"type":"VEC3"},{"bufferView":1,"byteOffset":6864,"componentType":5126,"count":4,"type":"VEC3"},{"bufferView":1,"byteOffset":6912,"componentType":5126,"count":4,"type":"VEC3"},{"bufferView":1,"byteOffset":6960,"componentType":5126,"count":14,"type":"VEC3"},{"bufferView":1,"byteOffset":7128,"componentType":5126,"count":26,"type":"VEC3"},{"bufferView":1,"byteOffset":7440,"componentType":5126,"count":4,"type":"VEC3"},{"bufferView":1,"byteOffset":7488,"componentType":5126,"count":32,"type":"VEC3"},{"bufferView":1,"byteOffset":7872,"componentType":5126,"count":8,"type":"VEC3"},{"bufferView":1,"byteOffset":7968,"componentType":5126,"count":36,"type":"VEC3"},{"bufferView":1,"byteOffset":8400,"componentType":5126,"count":4,"type":"VEC3"},{"bufferView":1,"byteOffset":8448,"componentType":5126,"count":44,"type":"VEC3"},{"bufferView":1,"byteOffset":8976,"componentType":5126,"count":8,"type":"VEC3"},{"bufferView":1,"byteOffset":9072,"componentType":5126,"count":5,"type":"VEC3"},{"bufferView":1,"byteOffset":9132,"componentType":5126,"count":4,"type":"VEC3"},{"bufferView":1,"byteOffset":9180,"componentType":5126,"count":5,"type":"VEC3"},{"bufferView":1,"byteOffset":9240,"componentType":5126,"count":17,"type":"VEC3"},{"bufferView":1,"byteOffset":9444,"componentType":5126,"count":4,"type":"VEC3"},{"bufferView":1,"byteOffset":9492,"componentType":5126,"count":17,"type":"VEC3"},{"bufferView":1,"byteOffset":9696,"componentType":5126,"count":4,"type":"VEC3"},{"bufferView":1,"byteOffset":9744,"componentType":5126,"count":12,"type":"VEC3"},{"bufferView":1,"byteOffset":9888,"componentType":5126,"count":4,"type":"VEC3"},{"bufferView":2,"byteOffset":0,"componentType":5123,"count":18,"type":"SCALAR"},{"bufferView":2,"byteOffset":36,"componentType":5123,"count":483,"type":"SCALAR"},{"bufferView":2,"byteOffset":1004,"componentType":5123,"count":6,"type":"SCALAR"},{"bufferView":2,"byteOffset":1016,"componentType":5123,"count":90,"type":"SCALAR"},{"bufferView":2,"byteOffset":1196,"componentType":5123,"count":483,"type":"SCALAR"},{"bufferView":2,"byteOffset":2164,"componentType":5123,"count":66,"type":"SCALAR"},{"bufferView":2,"byteOffset":2296,"componentType":5123,"count":6,"type":"SCALAR"},{"bufferView":2,"byteOffset":2308,"componentType":5123,"count":30,"type":"SCALAR"},{"bufferView":2,"byteOffset":2368,"componentType":5123,"count":96,"type":"SCALAR"},{"bufferView":2,"byteOffset":2560,"componentType":5123,"count":6,"type":"SCALAR"},{"bufferView":2,"byteOffset":2572,"componentType":5123,"count":18,"type":"SCALAR"},{"bufferView":2,"byteOffset":2608,"componentType":5123,"count":6,"type":"SCALAR"},{"bufferView":2,"byteOffset":2620,"componentType":5123,"count":6,"type":"SCALAR"},{"bufferView":2,"byteOffset":2632,"componentType":5123,"count":24,"type":"SCALAR"},{"bufferView":2,"byteOffset":2680,"componentType":5123,"count":6,"type":"SCALAR"},{"bufferView":2,"byteOffset":2692,"componentType":5123,"count":24,"type":"SCALAR"},{"bufferView":2,"byteOffset":2740,"componentType":5123,"count":6,"type":"SCALAR"},{"bufferView":2,"byteOffset":2752,"componentType":5123,"count":18,"type":"SCALAR"},{"bufferView":2,"byteOffset":2788,"componentType":5123,"count":102,"type":"SCALAR"},{"bufferView":2,"byteOffset":2992,"componentType":5123,"count":18,"type":"SCALAR"},{"bufferView":2,"byteOffset":3028,"componentType":5123,"count":6,"type":"SCALAR"},{"bufferView":2,"byteOffset":3040,"componentType":5123,"count":24,"type":"SCALAR"},{"bufferView":2,"byteOffset":3088,"componentType":5123,"count":6,"type":"SCALAR"},{"bufferView":2,"byteOffset":3100,"componentType":5123,"count":24,"type":"SCALAR"},{"bufferView":2,"byteOffset":3148,"componentType":5123,"count":6,"type":"SCALAR"},{"bufferView":2,"byteOffset":3160,"componentType":5123,"count":6,"type":"SCALAR"},{"bufferView":2,"byteOffset":3172,"componentType":5123,"count":36,"type":"SCALAR"},{"bufferView":2,"byteOffset":3244,"componentType":5123,"count":72,"type":"SCALAR"},{"bufferView":2,"byteOffset":3388,"componentType":5123,"count":6,"type":"SCALAR"},{"bufferView":2,"byteOffset":3400,"componentType":5123,"count":90,"type":"SCALAR"},{"bufferView":2,"byteOffset":3580,"componentType":5123,"count":18,"type":"SCALAR"},{"bufferView":2,"byteOffset":3616,"componentType":5123,"count":108,"type":"SCALAR"},{"bufferView":2,"byteOffset":3832,"componentType":5123,"count":6,"type":"SCALAR"},{"bufferView":2,"byteOffset":3844,"componentType":5123,"count":132,"type":"SCALAR"},{"bufferView":2,"byteOffset":4108,"componentType":5123,"count":18,"type":"SCALAR"},{"bufferView":2,"byteOffset":4144,"componentType":5123,"count":9,"type":"SCALAR"},{"bufferView":2,"byteOffset":4164,"componentType":5123,"count":6,"type":"SCALAR"},{"bufferView":2,"byteOffset":4176,"componentType":5123,"count":9,"type":"SCALAR"},{"bufferView":2,"byteOffset":4196,"componentType":5123,"count":45,"type":"SCALAR"},{"bufferView":2,"byteOffset":4288,"componentType":5123,"count":6,"type":"SCALAR"},{"bufferView":2,"byteOffset":4300,"componentType":5123,"count":45,"type":"SCALAR"},{"bufferView":2,"byteOffset":4392,"componentType":5123,"count":6,"type":"SCALAR"},{"bufferView":2,"byteOffset":4404,"componentType":5123,"count":30,"type":"SCALAR"},{"bufferView":2,"byteOffset":4464,"componentType":5123,"count":6,"type":"SCALAR"}],"asset":{"generator":"Open CASCADE Technology 7.8 [dev.opencascade.org]","version":"2.0"},"bufferViews":[{"buffer":0,"byteLength":9936,"byteOffset":0,"byteStride":12,"target":34962},{"buffer":0,"byteLength":9936,"byteOffset":9936,"byteStride":12,"target":34962},{"buffer":0,"byteLength":4476,"byteOffset":19872,"target":34963}],"buffers":[{"byteLength":24348,"uri":"hanger-Body.bin"}],"materials":[{"name":"mat_0","pbrMetallicRoughness":{"baseColorFactor":[0.16826939582824707,0.19120168685913086,0.2158605307340622,1.0]},"doubleSided":true}],"meshes":[{"name":"Body","primitives":[{"attributes":{"NORMAL":44,"POSITION":0},"indices":88,"material":0,"mode":4},{"attributes":{"NORMAL":45,"POSITION":1},"indices":89,"material":0,"mode":4},{"attributes":{"NORMAL":46,"POSITION":2},"indices":90,"material":0,"mode":4},{"attributes":{"NORMAL":47,"POSITION":3},"indices":91,"material":0,"mode":4},{"attributes":{"NORMAL":48,"POSITION":4},"indices":92,"material":0,"mode":4},{"attributes":{"NORMAL":49,"POSITION":5},"indices":93,"material":0,"mode":4},{"attributes":{"NORMAL":50,"POSITION":6},"indices":94,"material":0,"mode":4},{"attributes":{"NORMAL":51,"POSITION":7},"indices":95,"material":0,"mode":4},{"attributes":{"NORMAL":52,"POSITION":8},"indices":96,"material":0,"mode":4},{"attributes":{"NORMAL":53,"POSITION":9},"indices":97,"material":0,"mode":4},{"attributes":{"NORMAL":54,"POSITION":10},"indices":98,"material":0,"mode":4},{"attributes":{"NORMAL":55,"POSITION":11},"indices":99,"material":0,"mode":4},{"attributes":{"NORMAL":56,"POSITION":12},"indices":100,"material":0,"mode":4},{"attributes":{"NORMAL":57,"POSITION":13},"indices":101,"material":0,"mode":4},{"attributes":{"NORMAL":58,"POSITION":14},"indices":102,"material":0,"mode":4},{"attributes":{"NORMAL":59,"POSITION":15},"indices":103,"material":0,"mode":4},{"attributes":{"NORMAL":60,"POSITION":16},"indices":104,"material":0,"mode":4},{"attributes":{"NORMAL":61,"POSITION":17},"indices":105,"material":0,"mode":4},{"attributes":{"NORMAL":62,"POSITION":18},"indices":106,"material":0,"mode":4},{"attributes":{"NORMAL":63,"POSITION":19},"indices":107,"material":0,"mode":4},{"attributes":{"NORMAL":64,"POSITION":20},"indices":108,"material":0,"mode":4},{"attributes":{"NORMAL":65,"POSITION":21},"indices":109,"material":0,"mode":4},{"attributes":{"NORMAL":66,"POSITION":22},"indices":110,"material":0,"mode":4},{"attributes":{"NORMAL":67,"POSITION":23},"indices":111,"material":0,"mode":4},{"attributes":{"NORMAL":68,"POSITION":24},"indices":112,"material":0,"mode":4},{"attributes":{"NORMAL":69,"POSITION":25},"indices":113,"material":0,"mode":4},{"attributes":{"NORMAL":70,"POSITION":26},"indices":114,"material":0,"mode":4},{"attributes":{"NORMAL":71,"POSITION":27},"indices":115,"material":0,"mode":4},{"attributes":{"NORMAL":72,"POSITION":28},"indices":116,"material":0,"mode":4},{"attributes":{"NORMAL":73,"POSITION":29},"indices":117,"material":0,"mode":4},{"attributes":{"NORMAL":74,"POSITION":30},"indices":118,"material":0,"mode":4},{"attributes":{"NORMAL":75,"POSITION":31},"indices":119,"material":0,"mode":4},{"attributes":{"NORMAL":76,"POSITION":32},"indices":120,"material":0,"mode":4},{"attributes":{"NORMAL":77,"POSITION":33},"indices":121,"material":0,"mode":4},{"attributes":{"NORMAL":78,"POSITION":34},"indices":122,"material":0,"mode":4},{"attributes":{"NORMAL":79,"POSITION":35},"indices":123,"material":0,"mode":4},{"attributes":{"NORMAL":80,"POSITION":36},"indices":124,"material":0,"mode":4},{"attributes":{"NORMAL":81,"POSITION":37},"indices":125,"material":0,"mode":4},{"attributes":{"NORMAL":82,"POSITION":38},"indices":126,"material":0,"mode":4},{"attributes":{"NORMAL":83,"POSITION":39},"indices":127,"material":0,"mode":4},{"attributes":{"NORMAL":84,"POSITION":40},"indices":128,"material":0,"mode":4},{"attributes":{"NORMAL":85,"POSITION":41},"indices":129,"material":0,"mode":4},{"attributes":{"NORMAL":86,"POSITION":42},"indices":130,"material":0,"mode":4},{"attributes":{"NORMAL":87,"POSITION":43},"indices":131,"material":0,"mode":4}]}],"nodes":[{"mesh":0,"name":"Body"}],"scene":0,"scenes":[{"nodes":[0]}]}