{"accessors":[{"bufferView":0,"byteOffset":0,"componentType":5126,"count":128,"max":[0.041736903134733466,0.0003,-0.025899421162779178],"min":[0.02453690313473346,0.0,-0.04783333416277918],"type":"VEC3"},{"bufferView":0,"byteOffset":1536,"componentType":5126,"count":52,"max":[0.025536903134733464,0.0024000000000000007,-0.02483333416277917],"min":[0.025536903134733457,0.0,-0.04883333416277902],"type":"VEC3"},{"bufferView":0,"byteOffset":2160,"componentType":5126,"count":16,"max":[0.02553690313473346,0.0011899999999999999,-0.02483333416277917],"min":[0.02453690313473346,0.0,-0.02602333416277917],"type":"VEC3"},{"bufferView":0,"byteOffset":2352,"componentType":5126,"count":4,"max":[0.040736903134733465,0.0008,-0.03003008699999999],"min":[0.02553690313473346,0.0,-0.03003008699999999],"type":"VEC3"},{"bufferView":0,"byteOffset":2400,"componentType":5126,"count":20,"max":[0.024536903134733466,0.0024,-0.02483333416277917],"min":[0.02453690313473346,0.0,-0.04883333416277902],"type":"VEC3"},{"bufferView":0,"byteOffset":2640,"componentType":5126,"count":52,"max":[0.04073690313473347,0.0024000000000000007,-0.024709421162779178],"min":[0.04073690313473346,0.0,-0.048809421162779254],"type":"VEC3"},{"bufferView":0,"byteOffset":3264,"componentType":5126,"count":4,"max":[0.02553690313473346,0.0014,-0.04783333416277918],"min":[0.02453690313473346,0.0,-0.04783333416277918],"type":"VEC3"},{"bufferView":0,"byteOffset":3312,"componentType":5126,"count":16,"max":[0.041736903134733466,0.0011899999999999999,-0.024709421162779178],"min":[0.040736903134733465,0.0,-0.025899421162779178],"type":"VEC3"},{"bufferView":0,"byteOffset":3504,"componentType":5126,"count":20,"max":[0.041736903134733466,0.0024,-0.024709421162779178],"min":[0.041736903134733466,0.0,-0.048809421162779254],"type":"VEC3"},{"bufferView":0,"byteOffset":3744,"componentType":5126,"count":4,"max":[0.02703690313473346,0.0008,-0.04463008699999999],"min":[0.02553690313473346,0.0,-0.04463008699999999],"type":"VEC3"},{"bufferView":0,"byteOffset":3792,"componentType":5126,"count":4,"max":[0.041736903134733466,0.0014,-0.04780942116277918],"min":[0.040736903134733465,0.0,-0.04780942116277918],"type":"VEC3"},{"bufferView":0,"byteOffset":3840,"componentType":5126,"count":3,"max":[0.02853690313473347,0.0008,-0.04463008699999999],"min":[0.02703690313473346,0.0,-0.047830087],"type":"VEC3"},{"bufferView":0,"byteOffset":3876,"componentType":5126,"count":120,"max":[0.040736903134733465,0.0008,-0.03003008699999999],"min":[0.02553690313473346,0.0003,-0.047830087],"type":"VEC3"},{"bufferView":0,"byteOffset":5316,"componentType":5126,"count":4,"max":[0.040736903134733465,0.0008,-0.04463008699999999],"min":[0.03923690313473347,0.0,-0.04463008699999999],"type":"VEC3"},{"bufferView":0,"byteOffset":5364,"componentType":5126,"count":3,"max":[0.03923690313473347,0.0008,-0.04463008699999999],"min":[0.03773690313473347,0.0,-0.047830087],"type":"VEC3"},{"bufferView":0,"byteOffset":5400,"componentType":5126,"count":4,"max":[0.0381369031347333,0.0008,-0.033384849758747996],"min":[0.0281369031347333,0.0,-0.03338484975874899],"type":"VEC3"},{"bufferView":0,"byteOffset":5448,"componentType":5126,"count":28,"max":[0.038633257571782535,0.0008,-0.03238484975874175],"min":[0.03813690313473245,0.0,-0.033384849758747996],"type":"VEC3"},{"bufferView":0,"byteOffset":5784,"componentType":5126,"count":28,"max":[0.0281369031347333,0.0008,-0.03238484975874899],"min":[0.027640548697684234,0.0,-0.03338484975874899],"type":"VEC3"},{"bufferView":0,"byteOffset":6120,"componentType":5126,"count":4,"max":[0.03813690313473245,0.0008,-0.03238484975874175],"min":[0.028136903134732674,0.0,-0.03238484975874899],"type":"VEC3"},{"bufferView":0,"byteOffset":6168,"componentType":5126,"count":4,"max":[0.038136903134733294,0.0008,-0.03654483319739931],"min":[0.0281369031347333,0.0,-0.03654483319740031],"type":"VEC3"},{"bufferView":0,"byteOffset":6216,"componentType":5126,"count":28,"max":[0.038633257571782535,0.0008,-0.03554483319739306],"min":[0.03813690313473244,0.0,-0.03654483319739931],"type":"VEC3"},{"bufferView":0,"byteOffset":6552,"componentType":5126,"count":28,"max":[0.0281369031347333,0.0008,-0.03554483319740031],"min":[0.027640548697684234,0.0,-0.03654483319740031],"type":"VEC3"},{"bufferView":0,"byteOffset":6888,"componentType":5126,"count":4,"max":[0.03813690313473244,0.0008,-0.03554483319739306],"min":[0.028136903134732674,0.0,-0.03554483319740031],"type":"VEC3"},{"bufferView":0,"byteOffset":6936,"componentType":5126,"count":4,"max":[0.0381369031347333,0.0008,-0.04001387431590261],"min":[0.0281369031347333,0.0,-0.04001387431590359],"type":"VEC3"},{"bufferView":0,"byteOffset":6984,"componentType":5126,"count":28,"max":[0.03863325757178253,0.0008,-0.039013874315901635],"min":[0.03813690313473245,0.0,-0.04001387431590261],"type":"VEC3"},{"bufferView":0,"byteOffset":7320,"componentType":5126,"count":28,"max":[0.0281369031347333,0.0008,-0.039013874315903606],"min":[0.027640548697684238,0.0,-0.04001387431590359],"type":"VEC3"},{"bufferView":0,"byteOffset":7656,"componentType":5126,"count":4,"max":[0.03813690313473245,0.0008,-0.039013874315901635],"min":[0.028136903134732674,0.0,-0.039013874315903606],"type":"VEC3"},{"bufferView":0,"byteOffset":7704,"componentType":5126,"count":4,"max":[0.038136903134733294,0.0008,-0.04347408483482384],"min":[0.0281369031347333,0.0,-0.043474084834824823],"type":"VEC3"},{"bufferView":0,"byteOffset":7752,"componentType":5126,"count":28,"max":[0.03863325757178254,0.0008,-0.042474084834818564],"min":[0.03813690313473245,0.0,-0.04347408483482384],"type":"VEC3"},{"bufferView":0,"byteOffset":8088,"componentType":5126,"count":28,"max":[0.0281369031347333,0.0008,-0.0424740848348258],"min":[0.027640548697684224,0.0,-0.043474084834824823],"type":"VEC3"},{"bufferView":0,"byteOffset":8424,"componentType":5126,"count":4,"max":[0.03813690313473245,0.0008,-0.042474084834818564],"min":[0.028136903134732674,0.0,-0.0424740848348258],"type":"VEC3"},{"bufferView":0,"byteOffset":8472,"componentType":5126,"count":4,"max":[0.02553690313473346,0.0014,-0.04783333416277918],"min":[0.02453690313473346,0.0014,-0.04883333416277902],"type":"VEC3"},{"bufferView":0,"byteOffset":8520,"componentType":5126,"count":4,"max":[0.02553690313473346,0.0024,-0.04883333416277902],"min":[0.02453690313473346,0.0014,-0.04883333416277902],"type":"VEC3"},{"bufferView":0,"byteOffset":8568,"componentType":5126,"count":6,"max":[0.025536903134733464,0.0024000000000000007,-0.02602333416277917],"min":[0.02453690313473346,0.0024,-0.04883333416277902],"type":"VEC3"},{"bufferView":0,"byteOffset":8640,"componentType":5126,"count":16,"max":[0.02553690313473346,0.0024,-0.02483333416277917],"min":[0.02453690313473346,0.001210000000000001,-0.02602333416277917],"type":"VEC3"},{"bufferView":0,"byteOffset":8832,"componentType":5126,"count":4,"max":[0.02553690313473346,0.001210000000000001,-0.02483333416277917],"min":[0.02453690313473346,0.0011899999999999999,-0.02483333416277917],"type":"VEC3"},{"bufferView":0,"byteOffset":8880,"componentType":5126,"count":54,"max":[0.027186903134733455,0.0017956253244588328,-0.025033334162779173],"min":[0.025536903134733457,0.0006043746755411679,-0.026233334162779176],"type":"VEC3"},{"bufferView":0,"byteOffset":9528,"componentType":5126,"count":4,"max":[0.041736903134733466,0.001210000000000001,-0.024709421162779178],"min":[0.040736903134733465,0.0011899999999999999,-0.024709421162779178],"type":"VEC3"},{"bufferView":0,"byteOffset":9576,"componentType":5126,"count":16,"max":[0.041736903134733466,0.0024,-0.024709421162779178],"min":[0.040736903134733465,0.001210000000000001,-0.025899421162779178],"type":"VEC3"},{"bufferView":0,"byteOffset":9768,"componentType":5126,"count":6,"max":[0.041736903134733466,0.0024000000000000007,-0.025899421162779178],"min":[0.04073690313473346,0.0024,-0.048809421162779254],"type":"VEC3"},{"bufferView":0,"byteOffset":9840,"componentType":5126,"count":4,"max":[0.041736903134733466,0.0024,-0.048809421162779254],"min":[0.040736903134733465,0.0014,-0.048809421162779254],"type":"VEC3"},{"bufferView":0,"byteOffset":9888,"componentType":5126,"count":4,"max":[0.041736903134733466,0.0014,-0.04780942116277918],"min":[0.040736903134733465,0.0014,-0.048809421162779254],"type":"VEC3"},{"bufferView":0,"byteOffset":9936,"componentType":5126,"count":54,"max":[0.04073690313473347,0.0017956253244588325,-0.024909421162779173],"min":[0.039086903134733474,0.0006043746755411677,-0.026109421162779176],"type":"VEC3"},{"bufferView":0,"byteOffset":10584,"componentType":5126,"count":216,"max":[0.027336903134733456,0.0017956253244588328,-0.025033334162779173],"min":[0.027186903134733455,0.0006043746755411679,-0.026233334162779176],"type":"VEC3"},{"bufferView":0,"byteOffset":13176,"componentType":5126,"count":216,"max":[0.039086903134733474,0.0017956253244588325,-0.024909421162779173],"min":[0.038936903134733476,0.0006043746755411677,-0.026109421162779176],"type":"VEC3"},{"bufferView":0,"byteOffset":15768,"componentType":5126,"count":26,"max":[0.027336903134733456,0.0016467189933441248,-0.025183334162779177],"min":[0.027336903134733456,0.000753281006655876,-0.026083334162779175],"type":"VEC3"},{"bufferView":0,"byteOffset":16080,"componentType":5126,"count":26,"max":[0.038936903134733476,0.0016467189933441245,-0.025059421162779174],"min":[0.038936903134733476,0.0007532810066558757,-0.025959421162779172],"type":"VEC3"},{"bufferView":1,"byteOffset":0,"componentType":5126,"count":128,"type":"VEC3"},{"bufferView":1,"byteOffset":1536,"componentType":5126,"count":52,"type":"VEC3"},{"bufferView":1,"byteOffset":2160,"componentType":5126,"count":16,"type":"VEC3"},{"bufferView":1,"byteOffset":2352,"componentType":5126,"count":4,"type":"VEC3"},{"bufferView":1,"byteOffset":2400,"componentType":5126,"count":20,"type":"VEC3"},{"bufferView":1,"byteOffset":2640,"componentType":5126,"count":52,"type":"VEC3"},{"bufferView":1,"byteOffset":3264,"componentType":5126,"count":4,"type":"VEC3"},{"bufferView":1,"byteOffset":3312,"componentType":5126,"count":16,"type":"VEC3"},{"bufferView":1,"byteOffset":3504,"componentType":5126,"count":20,"type":"VEC3"},{"bufferView":1,"byteOffset":3744,"componentType":5126,"count":4,"type":"VEC3"},{"bufferView":1,"byteOffset":3792,"componentType":5126,"count":4,"type":"VEC3"},{"bufferView":1,"byteOffset":3840,"componentType":5126,"count":3,"type":"VEC3"},{"bufferView":1,"byteOffset":3876,"componentType":5126,"count":120,"type":"VEC3"},{"bufferView":1,"byteOffset":5316,"componentType":5126,"count":4,"type":"VEC3"},{"bufferView":1,"byteOffset":5364,"componentType":5126,"count":3,"type":"VEC3"},{"bufferView":1,"byteOffset":5400,"componentType":5126,"count":4,"type":"VEC3"},{"bufferView":1,"byteOffset":5448,"componentType":5126,"count":28,"type":"VEC3"},{"bufferView":1,"byteOffset":5784,"componentType":5126,"count":28,"type":"VEC3"},{"bufferView":1,"byteOffset":6120,"componentType":5126,"count":4,"type":"VEC3"},{"bufferView":1,"byteOffset":6168,"componentType":5126,"count":4,"type":"VEC3"},{"bufferView":1,"byteOffset":6216,"componentType":5126,"count":28,"type":"VEC3"},{"bufferView":1,"byteOffset":6552,"componentType":5126,"count":28,"type":"VEC3"},{"bufferView":1,"byteOffset":6888,"componentType":5126,"count":4,"type":"VEC3"},{"bufferView":1,"byteOffset":6936,"componentType":5126,"count":4,"type":"VEC3"},{"bufferView":1,"byteOffset":6984,"componentType":5126,"count":28,"type":"VEC3"},{"bufferView":1,"byteOffset":7320,"componentType":5126,"count":28,"type":"VEC3"},{"bufferView":1,"byteOffset":7656,"componentType":5126,"count":4,"type":"VEC3"},{"bufferView":1,"byteOffset":7704,"componentType":5126,"count":4,"type":"VEC3"},{"bufferView":1,"byteOffset":7752,"componentType":5126,"count":28,"type":"VEC3"},{"bufferView":1,"byteOffset":8088,"componentType":5126,"count":28,"type":"VEC3"},{"bufferView":1,"byteOffset":8424,"componentType":5126,"count":4,"type":"VEC3"},{"bufferView":1,"byteOffset":8472,"componentType":5126,"count":4,"type":"VEC3"},{"bufferView":1,"byteOffset":8520,"componentType":5126,"count":4,"type":"VEC3"},{"bufferView":1,"byteOffset":8568,"componentType":5126,"count":6,"type":"VEC3"},{"bufferView":1,"byteOffset":8640,"componentType":5126,"count":16,"type":"VEC3"},{"bufferView":1,"byteOffset":8832,"componentType":5126,"count":4,"type":"VEC3"},{"bufferView":1,"byteOffset":8880,"componentType":5126,"count":54,"type":"VEC3"},{"bufferView":1,"byteOffset":9528,"componentType":5126,"count":4,"type":"VEC3"},{"bufferView":1,"byteOffset":9576,"componentType":5126,"count":16,"type":"VEC3"},{"bufferView":1,"byteOffset":9768,"componentType":5126,"count":6,"type":"VEC3"},{"bufferView":1,"byteOffset":9840,"componentType":5126,"count":4,"type":"VEC3"},{"bufferView":1,"byteOffset":9888,"componentType":5126,"count":4,"type":"VEC3"},{"bufferView":1,"byteOffset":9936,"componentType":5126,"count":54,"type":"VEC3"},{"bufferView":1,"byteOffset":10584,"componentType":5126,"count":216,"type":"VEC3"},{"bufferView":1,"byteOffset":13176,"componentType":5126,"count":216,"type":"VEC3"},{"bufferView":1,"byteOffset":15768,"componentType":5126,"count":26,"type":"VEC3"},{"bufferView":1,"byteOffset":16080,"componentType":5126,"count":26,"type":"VEC3"},{"bufferView":2,"byteOffset":0,"componentType":5123,"count":402,"type":"SCALAR"},{"bufferView":2,"byteOffset":804,"componentType":5123,"count":156,"type":"SCALAR"},{"bufferView":2,"byteOffset":1116,"componentType":5123,"count":42,"type":"SCALAR"},{"bufferView":2,"byteOffset":1200,"componentType":5123,"count":6,"type":"SCALAR"},{"bufferView":2,"byteOffset":1212,"componentType":5123,"count":54,"type":"SCALAR"},{"bufferView":2,"byteOffset":1320,"componentType":5123,"count":156,"type":"SCALAR"},{"bufferView":2,"byteOffset":1632,"componentType":5123,"count":6,"type":"SCALAR"},{"bufferView":2,"byteOffset":1644,"componentType":5123,"count":42,"type":"SCALAR"},{"bufferView":2,"byteOffset":1728,"componentType":5123,"count":54,"type":"SCALAR"},{"bufferView":2,"byteOffset":1836,"componentType":5123,"count":6,"type":"SCALAR"},{"bufferView":2,"byteOffset":1848,"componentType":5123,"count":6,"type":"SCALAR"},{"bufferView":2,"byteOffset":1860,"componentType":5123,"count":3,"type":"SCALAR"},{"bufferView":2,"byteOffset":1868,"componentType":5123,"count":378,"type":"SCALAR"},{"bufferView":2,"byteOffset":2624,"componentType":5123,"count":6,"type":"SCALAR"},{"bufferView":2,"byteOffset":2636,"componentType":5123,"count":3,"type":"SCALAR"},{"bufferView":2,"byteOffset":2644,"componentType":5123,"count":6,"type":"SCALAR"},{"bufferView":2,"byteOffset":2656,"componentType":5123,"count":78,"type":"SCALAR"},{"bufferView":2,"byteOffset":2812,"componentType":5123,"count":78,"type":"SCALAR"},{"bufferView":2,"byteOffset":2968,"componentType":5123,"count":6,"type":"SCALAR"},{"bufferView":2,"byteOffset":2980,"componentType":5123,"count":6,"type":"SCALAR"},{"bufferView":2,"byteOffset":2992,"componentType":5123,"count":78,"type":"SCALAR"},{"bufferView":2,"byteOffset":3148,"componentType":5123,"count":78,"type":"SCALAR"},{"bufferView":2,"byteOffset":3304,"componentType":5123,"count":6,"type":"SCALAR"},{"bufferView":2,"byteOffset":3316,"componentType":5123,"count":6,"type":"SCALAR"},{"bufferView":2,"byteOffset":3328,"componentType":5123,"count":78,"type":"SCALAR"},{"bufferView":2,"byteOffset":3484,"componentType":5123,"count":78,"type":"SCALAR"},{"bufferView":2,"byteOffset":3640,"componentType":5123,"count":6,"type":"SCALAR"},{"bufferView":2,"byteOffset":3652,"componentType":5123,"count":6,"type":"SCALAR"},{"bufferView":2,"byteOffset":3664,"componentType":5123,"count":78,"type":"SCALAR"},{"bufferView":2,"byteOffset":3820,"componentType":5123,"count":78,"type":"SCALAR"},{"bufferView":2,"byteOffset":3976,"componentType":5123,"count":6,"type":"SCALAR"},{"bufferView":2,"byteOffset":3988,"componentType":5123,"count":6,"type":"SCALAR"},{"bufferView":2,"byteOffset":4000,"componentType":5123,"count":6,"type":"SCALAR"},{"bufferView":2,"byteOffset":4012,"componentType":5123,"count":12,"type":"SCALAR"},{"bufferView":2,"byteOffset":4036,"componentType":5123,"count":42,"type":"SCALAR"},{"bufferView":2,"byteOffset":4120,"componentType":5123,"count":6,"type":"SCALAR"},{"bufferView":2,"byteOffset":4132,"componentType":5123,"count":156,"type":"SCALAR"},{"bufferView":2,"byteOffset":4444,"componentType":5123,"count":6,"type":"SCALAR"},{"bufferView":2,"byteOffset":4456,"componentType":5123,"count":42,"type":"SCALAR"},{"bufferView":2,"byteOffset":4540,"componentType":5123,"count":12,"type":"SCALAR"},{"bufferView":2,"byteOffset":4564,"componentType":5123,"count":6,"type":"SCALAR"},{"bufferView":2,"byteOffset":4576,"componentType":5123,"count":6,"type":"SCALAR"},{"bufferView":2,"byteOffset":4588,"componentType":5123,"count":156,"type":"SCALAR"},{"bufferView":2,"byteOffset":4900,"componentType":5123,"count":1092,"type":"SCALAR"},{"bufferView":2,"byteOffset":7084,"componentType":5123,"count":1092,"type":"SCALAR"},{"bufferView":2,"byteOffset":9268,"componentType":5123,"count":72,"type":"SCALAR"},{"bufferView":2,"byteOffset":9412,"componentType":5123,"count":72,"type":"SCALAR"}],"asset":{"generator":"Open CASCADE Technology 7.8 [dev.opencascade.org]","version":"2.0"},"bufferViews":[{"buffer":0,"byteLength":16392,"byteOffset":0,"byteStride":12,"target":34962},{"buffer":0,"byteLength":16392,"byteOffset":16392,"byteStride":12,"target":34962},{"buffer":0,"byteLength":9556,"byteOffset":32784,"target":34963}],"buffers":[{"byteLength":42340,"uri":"wifi_sim_tray-Body.bin"}],"materials":[{"name":"mat_0","pbrMetallicRoughness":{"baseColorFactor":[0.16826939582824707,0.19120168685913086,0.2158605307340622,1.0]},"doubleSided":true}],"meshes":[{"name":"Body","primitives":[{"attributes":{"NORMAL":47,"POSITION":0},"indices":94,"material":0,"mode":4},{"attributes":{"NORMAL":48,"POSITION":1},"indices":95,"material":0,"mode":4},{"attributes":{"NORMAL":49,"POSITION":2},"indices":96,"material":0,"mode":4},{"attributes":{"NORMAL":50,"POSITION":3},"indices":97,"material":0,"mode":4},{"attributes":{"NORMAL":51,"POSITION":4},"indices":98,"material":0,"mode":4},{"attributes":{"NORMAL":52,"POSITION":5},"indices":99,"material":0,"mode":4},{"attributes":{"NORMAL":53,"POSITION":6},"indices":100,"material":0,"mode":4},{"attributes":{"NORMAL":54,"POSITION":7},"indices":101,"material":0,"mode":4},{"attributes":{"NORMAL":55,"POSITION":8},"indices":102,"material":0,"mode":4},{"attributes":{"NORMAL":56,"POSITION":9},"indices":103,"material":0,"mode":4},{"attributes":{"NORMAL":57,"POSITION":10},"indices":104,"material":0,"mode":4},{"attributes":{"NORMAL":58,"POSITION":11},"indices":105,"material":0,"mode":4},{"attributes":{"NORMAL":59,"POSITION":12},"indices":106,"material":0,"mode":4},{"attributes":{"NORMAL":60,"POSITION":13},"indices":107,"material":0,"mode":4},{"attributes":{"NORMAL":61,"POSITION":14},"indices":108,"material":0,"mode":4},{"attributes":{"NORMAL":62,"POSITION":15},"indices":109,"material":0,"mode":4},{"attributes":{"NORMAL":63,"POSITION":16},"indices":110,"material":0,"mode":4},{"attributes":{"NORMAL":64,"POSITION":17},"indices":111,"material":0,"mode":4},{"attributes":{"NORMAL":65,"POSITION":18},"indices":112,"material":0,"mode":4},{"attributes":{"NORMAL":66,"POSITION":19},"indices":113,"material":0,"mode":4},{"attributes":{"NORMAL":67,"POSITION":20},"indices":114,"material":0,"mode":4},{"attributes":{"NORMAL":68,"POSITION":21},"indices":115,"material":0,"mode":4},{"attributes":{"NORMAL":69,"POSITION":22},"indices":116,"material":0,"mode":4},{"attributes":{"NORMAL":70,"POSITION":23},"indices":117,"material":0,"mode":4},{"attributes":{"NORMAL":71,"POSITION":24},"indices":118,"material":0,"mode":4},{"attributes":{"NORMAL":72,"POSITION":25},"indices":119,"material":0,"mode":4},{"attributes":{"NORMAL":73,"POSITION":26},"indices":120,"material":0,"mode":4},{"attributes":{"NORMAL":74,"POSITION":27},"indices":121,"material":0,"mode":4},{"attributes":{"NORMAL":75,"POSITION":28},"indices":122,"material":0,"mode":4},{"attributes":{"NORMAL":76,"POSITION":29},"indices":123,"material":0,"mode":4},{"attributes":{"NORMAL":77,"POSITION":30},"indices":124,"material":0,"mode":4},{"attributes":{"NORMAL":78,"POSITION":31},"indices":125,"material":0,"mode":4},{"attributes":{"NORMAL":79,"POSITION":32},"indices":126,"material":0,"mode":4},{"attributes":{"NORMAL":80,"POSITION":33},"indices":127,"material":0,"mode":4},{"attributes":{"NORMAL":81,"POSITION":34},"indices":128,"material":0,"mode":4},{"attributes":{"NORMAL":82,"POSITION":35},"indices":129,"material":0,"mode":4},{"attributes":{"NORMAL":83,"POSITION":36},"indices":130,"material":0,"mode":4},{"attributes":{"NORMAL":84,"POSITION":37},"indices":131,"material":0,"mode":4},{"attributes":{"NORMAL":85,"POSITION":38},"indices":132,"material":0,"mode":4},{"attributes":{"NORMAL":86,"POSITION":39},"indices":133,"material":0,"mode":4},{"attributes":{"NORMAL":87,"POSITION":40},"indices":134,"material":0,"mode":4},{"attributes":{"NORMAL":88,"POSITION":41},"indices":135,"material":0,"mode":4},{"attributes":{"NORMAL":89,"POSITION":42},"indices":136,"material":0,"mode":4},{"attributes":{"NORMAL":90,"POSITION":43},"indices":137,"material":0,"mode":4},{"attributes":{"NORMAL":91,"POSITION":44},"indices":138,"material":0,"mode":4},{"attributes":{"NORMAL":92,"POSITION":45},"indices":139,"material":0,"mode":4},{"attributes":{"NORMAL":93,"POSITION":46},"indices":140,"material":0,"mode":4}]}],"nodes":[{"mesh":0,"name":"Body"}],"scene":0,"scenes":[{"nodes":[0]}]}